<svg width="239" height="120" viewBox="0 0 239 120" fill="none" xmlns="http://www.w3.org/2000/svg">
<circle cx="118.768" cy="59.7681" r="59.7681" fill="#0F0C29"/>
<path d="M79.1383 95L76.1633 84.64H77.0383L79.8313 94.573H79.6283L82.4913 84.64H83.5203L86.3763 94.573H86.1803L88.9943 84.64H89.8133L86.8453 95H85.7323L82.8903 85.186H83.1073L80.2513 95H79.1383ZM94.1167 95.098C93.3934 95.098 92.761 94.9533 92.2197 94.664C91.683 94.37 91.263 93.9103 90.9597 93.285C90.661 92.6597 90.5117 91.8453 90.5117 90.842C90.5117 89.834 90.6634 89.0173 90.9667 88.392C91.27 87.762 91.69 87.3023 92.2267 87.013C92.768 86.719 93.398 86.572 94.1167 86.572C94.8354 86.572 95.4654 86.719 96.0067 87.013C96.548 87.3023 96.968 87.762 97.2667 88.392C97.5654 89.022 97.7147 89.8387 97.7147 90.842C97.7147 91.8407 97.563 92.655 97.2597 93.285C96.961 93.9103 96.541 94.37 95.9997 94.664C95.4584 94.9533 94.8307 95.098 94.1167 95.098ZM94.1167 94.398C94.6674 94.398 95.148 94.2837 95.5587 94.055C95.9694 93.8263 96.289 93.4553 96.5177 92.942C96.7464 92.424 96.8607 91.731 96.8607 90.863C96.8607 89.9763 96.7464 89.2717 96.5177 88.749C96.289 88.2217 95.967 87.8437 95.5517 87.615C95.141 87.3863 94.6627 87.272 94.1167 87.272C93.566 87.272 93.0854 87.3863 92.6747 87.615C92.264 87.8437 91.9444 88.217 91.7157 88.735C91.4917 89.2483 91.3797 89.939 91.3797 90.807C91.3797 91.6937 91.4917 92.4007 91.7157 92.928C91.9444 93.4507 92.264 93.8263 92.6747 94.055C93.0854 94.2837 93.566 94.398 94.1167 94.398ZM99.685 95V86.67H100.518V94.286H104.914V95H99.685ZM107.02 95L103.821 86.67H104.696L107.72 94.622H107.552L110.583 86.67H111.423L108.224 95H107.02ZM112.796 95V86.67H118.165V87.363H113.615V94.307H118.221V95H112.796ZM113.328 91.073V90.387H117.584V91.073H113.328ZM121.569 95.098C121.229 95.098 120.869 95.07 120.491 95.014C120.118 94.9627 119.766 94.8857 119.434 94.783V94.055C119.682 94.1297 119.929 94.1927 120.176 94.244C120.424 94.2953 120.666 94.335 120.904 94.363C121.142 94.3863 121.366 94.398 121.576 94.398C122.09 94.398 122.512 94.3373 122.843 94.216C123.179 94.09 123.427 93.9103 123.585 93.677C123.749 93.439 123.83 93.1497 123.83 92.809C123.83 92.5243 123.774 92.284 123.662 92.088C123.555 91.892 123.371 91.724 123.109 91.584C122.853 91.444 122.496 91.3227 122.038 91.22L121.646 91.129C120.82 90.9377 120.223 90.6647 119.854 90.31C119.486 89.9507 119.301 89.463 119.301 88.847C119.301 88.3897 119.413 87.9907 119.637 87.65C119.861 87.3093 120.202 87.0457 120.659 86.859C121.117 86.6677 121.695 86.572 122.395 86.572C122.717 86.572 123.044 86.593 123.375 86.635C123.707 86.6723 124.01 86.7307 124.285 86.81V87.538C123.973 87.4447 123.658 87.377 123.34 87.335C123.028 87.293 122.713 87.272 122.395 87.272C121.873 87.272 121.443 87.3327 121.107 87.454C120.776 87.5753 120.531 87.7527 120.372 87.986C120.214 88.2147 120.134 88.4877 120.134 88.805C120.134 89.2437 120.258 89.582 120.505 89.82C120.757 90.0533 121.219 90.2493 121.891 90.408L122.283 90.499C122.853 90.6297 123.31 90.7953 123.655 90.996C124.005 91.192 124.26 91.437 124.418 91.731C124.582 92.0203 124.663 92.3657 124.663 92.767C124.663 93.2477 124.544 93.663 124.306 94.013C124.073 94.3583 123.728 94.6267 123.27 94.818C122.813 95.0047 122.246 95.098 121.569 95.098ZM131.655 95.133C130.731 95.133 129.909 95.0303 129.191 94.825C128.477 94.615 127.872 94.2953 127.378 93.866C126.883 93.432 126.507 92.8813 126.251 92.214C125.999 91.5467 125.873 90.7557 125.873 89.841C125.873 88.6837 126.099 87.7083 126.552 86.915C127.009 86.1217 127.674 85.522 128.547 85.116C129.424 84.71 130.495 84.507 131.76 84.507C132.184 84.507 132.593 84.528 132.985 84.57C133.377 84.612 133.762 84.6773 134.14 84.766V86.698C133.794 86.614 133.44 86.551 133.076 86.509C132.712 86.467 132.334 86.446 131.942 86.446C131.13 86.446 130.46 86.565 129.933 86.803C129.405 87.0363 129.011 87.4027 128.75 87.902C128.488 88.3967 128.358 89.0337 128.358 89.813C128.358 90.6157 128.486 91.2667 128.743 91.766C129.004 92.2607 129.391 92.6223 129.905 92.851C130.423 93.0797 131.069 93.194 131.844 93.194C132.24 93.194 132.628 93.166 133.006 93.11C133.384 93.054 133.762 92.9747 134.14 92.872V94.797C133.776 94.9043 133.381 94.986 132.957 95.042C132.532 95.1027 132.098 95.133 131.655 95.133ZM139.446 95.105C138.498 95.105 137.677 94.944 136.982 94.622C136.291 94.2953 135.754 93.8147 135.372 93.18C134.994 92.5407 134.805 91.7613 134.805 90.842C134.805 89.918 134.994 89.1387 135.372 88.504C135.754 87.8647 136.291 87.3817 136.982 87.055C137.677 86.7283 138.498 86.565 139.446 86.565C140.393 86.565 141.214 86.7283 141.91 87.055C142.605 87.3817 143.142 87.8647 143.52 88.504C143.898 89.1433 144.087 89.9227 144.087 90.842C144.087 91.7567 143.895 92.5337 143.513 93.173C143.135 93.8077 142.598 94.2883 141.903 94.615C141.207 94.9417 140.388 95.105 139.446 95.105ZM139.446 93.341C139.922 93.341 140.325 93.2547 140.657 93.082C140.993 92.9047 141.247 92.634 141.42 92.27C141.597 91.9013 141.686 91.437 141.686 90.877C141.686 90.289 141.597 89.806 141.42 89.428C141.242 89.05 140.986 88.7723 140.65 88.595C140.314 88.4177 139.912 88.329 139.446 88.329C138.979 88.329 138.578 88.4153 138.242 88.588C137.91 88.7607 137.656 89.029 137.479 89.393C137.301 89.757 137.213 90.2237 137.213 90.793C137.213 91.3903 137.299 91.878 137.472 92.256C137.649 92.6293 137.903 92.9047 138.235 93.082C138.566 93.2547 138.97 93.341 139.446 93.341ZM148.43 95.084C148.001 95.084 147.539 95.0723 147.044 95.049C146.549 95.0257 146.085 94.9883 145.651 94.937V86.901C145.95 86.8357 146.279 86.7797 146.638 86.733C147.002 86.6817 147.371 86.6443 147.744 86.621C148.117 86.593 148.472 86.579 148.808 86.579C150.586 86.579 151.925 86.9243 152.826 87.615C153.731 88.3057 154.184 89.3813 154.184 90.842C154.184 91.8407 153.972 92.6527 153.547 93.278C153.122 93.8987 152.483 94.356 151.629 94.65C150.775 94.9393 149.709 95.084 148.43 95.084ZM148.997 93.306C149.632 93.306 150.154 93.222 150.565 93.054C150.98 92.886 151.288 92.62 151.489 92.256C151.694 91.892 151.797 91.4137 151.797 90.821C151.797 90.2377 151.692 89.7663 151.482 89.407C151.277 89.043 150.966 88.777 150.551 88.609C150.14 88.4363 149.622 88.35 148.997 88.35C148.843 88.35 148.673 88.3593 148.486 88.378C148.304 88.392 148.148 88.4107 148.017 88.434V93.271C148.176 93.2803 148.337 93.2897 148.5 93.299C148.663 93.3037 148.829 93.306 148.997 93.306ZM155.741 95V86.67H162.622V88.329H158.044V93.341H162.678V95H155.741ZM157.001 91.591V89.932H161.999V91.591H157.001Z" fill="#CECACA"/>
</svg>
