<svg width="271" height="169" viewBox="0 0 271 169" fill="none" xmlns="http://www.w3.org/2000/svg">
<circle cx="92.9956" cy="59.7681" r="59.7681" fill="#CECACA"/>
<path d="M53.29 68L46.915 45.8H48.79L54.775 67.085H54.34L60.475 45.8H62.68L68.8 67.085H68.38L74.41 45.8H76.165L69.805 68H67.42L61.33 46.97H61.795L55.675 68H53.29ZM85.3865 68.21C83.8365 68.21 82.4815 67.9 81.3215 67.28C80.1715 66.65 79.2715 65.665 78.6215 64.325C77.9815 62.985 77.6615 61.24 77.6615 59.09C77.6615 56.93 77.9865 55.18 78.6365 53.84C79.2865 52.49 80.1865 51.505 81.3365 50.885C82.4965 50.255 83.8465 49.94 85.3865 49.94C86.9265 49.94 88.2765 50.255 89.4365 50.885C90.5965 51.505 91.4965 52.49 92.1365 53.84C92.7765 55.19 93.0965 56.94 93.0965 59.09C93.0965 61.23 92.7715 62.975 92.1215 64.325C91.4815 65.665 90.5815 66.65 89.4215 67.28C88.2615 67.9 86.9165 68.21 85.3865 68.21ZM85.3865 66.71C86.5665 66.71 87.5965 66.465 88.4765 65.975C89.3565 65.485 90.0415 64.69 90.5315 63.59C91.0215 62.48 91.2665 60.995 91.2665 59.135C91.2665 57.235 91.0215 55.725 90.5315 54.605C90.0415 53.475 89.3515 52.665 88.4615 52.175C87.5815 51.685 86.5565 51.44 85.3865 51.44C84.2065 51.44 83.1765 51.685 82.2965 52.175C81.4165 52.665 80.7315 53.465 80.2415 54.575C79.7615 55.675 79.5215 57.155 79.5215 59.015C79.5215 60.915 79.7615 62.43 80.2415 63.56C80.7315 64.68 81.4165 65.485 82.2965 65.975C83.1765 66.465 84.2065 66.71 85.3865 66.71ZM97.3185 68V50.15H99.1035V66.47H108.524V68H97.3185ZM113.036 68L106.181 50.15H108.056L114.536 67.19H114.176L120.671 50.15H122.471L115.616 68H113.036ZM125.414 68V50.15H136.919V51.635H127.169V66.515H137.039V68H125.414ZM126.554 59.585V58.115H135.674V59.585H126.554ZM144.214 68.21C143.484 68.21 142.714 68.15 141.904 68.03C141.104 67.92 140.349 67.755 139.639 67.535V65.975C140.169 66.135 140.699 66.27 141.229 66.38C141.759 66.49 142.279 66.575 142.789 66.635C143.299 66.685 143.779 66.71 144.229 66.71C145.329 66.71 146.234 66.58 146.944 66.32C147.664 66.05 148.194 65.665 148.534 65.165C148.884 64.655 149.059 64.035 149.059 63.305C149.059 62.695 148.939 62.18 148.699 61.76C148.469 61.34 148.074 60.98 147.514 60.68C146.964 60.38 146.199 60.12 145.219 59.9L144.379 59.705C142.609 59.295 141.329 58.71 140.539 57.95C139.749 57.18 139.354 56.135 139.354 54.815C139.354 53.835 139.594 52.98 140.074 52.25C140.554 51.52 141.284 50.955 142.264 50.555C143.244 50.145 144.484 49.94 145.984 49.94C146.674 49.94 147.374 49.985 148.084 50.075C148.794 50.155 149.444 50.28 150.034 50.45V52.01C149.364 51.81 148.689 51.665 148.009 51.575C147.339 51.485 146.664 51.44 145.984 51.44C144.864 51.44 143.944 51.57 143.224 51.83C142.514 52.09 141.989 52.47 141.649 52.97C141.309 53.46 141.139 54.045 141.139 54.725C141.139 55.665 141.404 56.39 141.934 56.9C142.474 57.4 143.464 57.82 144.904 58.16L145.744 58.355C146.964 58.635 147.944 58.99 148.684 59.42C149.434 59.84 149.979 60.365 150.319 60.995C150.669 61.615 150.844 62.355 150.844 63.215C150.844 64.245 150.589 65.135 150.079 65.885C149.579 66.625 148.839 67.2 147.859 67.61C146.879 68.01 145.664 68.21 144.214 68.21ZM165.825 68.285C163.845 68.285 162.085 68.065 160.545 67.625C159.015 67.175 157.72 66.49 156.66 65.57C155.6 64.64 154.795 63.46 154.245 62.03C153.705 60.6 153.435 58.905 153.435 56.945C153.435 54.465 153.92 52.375 154.89 50.675C155.87 48.975 157.295 47.69 159.165 46.82C161.045 45.95 163.34 45.515 166.05 45.515C166.96 45.515 167.835 45.56 168.675 45.65C169.515 45.74 170.34 45.88 171.15 46.07V50.21C170.41 50.03 169.65 49.895 168.87 49.805C168.09 49.715 167.28 49.67 166.44 49.67C164.7 49.67 163.265 49.925 162.135 50.435C161.005 50.935 160.16 51.72 159.6 52.79C159.04 53.85 158.76 55.215 158.76 56.885C158.76 58.605 159.035 60 159.585 61.07C160.145 62.13 160.975 62.905 162.075 63.395C163.185 63.885 164.57 64.13 166.23 64.13C167.08 64.13 167.91 64.07 168.72 63.95C169.53 63.83 170.34 63.66 171.15 63.44V67.565C170.37 67.795 169.525 67.97 168.615 68.09C167.705 68.22 166.775 68.285 165.825 68.285ZM182.52 68.225C180.49 68.225 178.73 67.88 177.24 67.19C175.76 66.49 174.61 65.46 173.79 64.1C172.98 62.73 172.575 61.06 172.575 59.09C172.575 57.11 172.98 55.44 173.79 54.08C174.61 52.71 175.76 51.675 177.24 50.975C178.73 50.275 180.49 49.925 182.52 49.925C184.55 49.925 186.31 50.275 187.8 50.975C189.29 51.675 190.44 52.71 191.25 54.08C192.06 55.45 192.465 57.12 192.465 59.09C192.465 61.05 192.055 62.715 191.235 64.085C190.425 65.445 189.275 66.475 187.785 67.175C186.295 67.875 184.54 68.225 182.52 68.225ZM182.52 64.445C183.54 64.445 184.405 64.26 185.115 63.89C185.835 63.51 186.38 62.93 186.75 62.15C187.13 61.36 187.32 60.365 187.32 59.165C187.32 57.905 187.13 56.87 186.75 56.06C186.37 55.25 185.82 54.655 185.1 54.275C184.38 53.895 183.52 53.705 182.52 53.705C181.52 53.705 180.66 53.89 179.94 54.26C179.23 54.63 178.685 55.205 178.305 55.985C177.925 56.765 177.735 57.765 177.735 58.985C177.735 60.265 177.92 61.31 178.29 62.12C178.67 62.92 179.215 63.51 179.925 63.89C180.635 64.26 181.5 64.445 182.52 64.445ZM201.772 68.18C200.852 68.18 199.862 68.155 198.802 68.105C197.742 68.055 196.747 67.975 195.817 67.865V50.645C196.457 50.505 197.162 50.385 197.932 50.285C198.712 50.175 199.502 50.095 200.302 50.045C201.102 49.985 201.862 49.955 202.582 49.955C206.392 49.955 209.262 50.695 211.192 52.175C213.132 53.655 214.102 55.96 214.102 59.09C214.102 61.23 213.647 62.97 212.737 64.31C211.827 65.64 210.457 66.62 208.627 67.25C206.797 67.87 204.512 68.18 201.772 68.18ZM202.987 64.37C204.347 64.37 205.467 64.19 206.347 63.83C207.237 63.47 207.897 62.9 208.327 62.12C208.767 61.34 208.987 60.315 208.987 59.045C208.987 57.795 208.762 56.785 208.312 56.015C207.872 55.235 207.207 54.665 206.317 54.305C205.437 53.935 204.327 53.75 202.987 53.75C202.657 53.75 202.292 53.77 201.892 53.81C201.502 53.84 201.167 53.88 200.887 53.93V64.295C201.227 64.315 201.572 64.335 201.922 64.355C202.272 64.365 202.627 64.37 202.987 64.37ZM217.438 68V50.15H232.183V53.705H222.373V64.445H232.303V68H217.438ZM220.138 60.695V57.14H230.848V60.695H220.138Z" fill="#5F4FF0"/>
<path d="M4 167C5.33333 165 8.5 163 8.5 163C8.5 163 11.5785 161.922 13 160.5C14.4215 159.078 14.7996 157.884 15.5 156C16.5295 153.23 16.1645 151.436 16.5 148.5C18.0084 135.302 16.5 128 17.5 114.5C18.5 101 10 103 10 103L7 95.5L5.5 92C4.07511 88.2352 3.68243 85.9672 3 82C2.20279 77.3655 1.86242 74.5 2 70C2 70 2.66487 66.9629 3 65C3.52988 61.8964 3.79919 60.1421 4 57C4.21171 53.6873 3.71268 51.807 4 48.5C4.29176 45.1419 5.5039 43.3707 5.5 40C5.49256 33.5771 0 24.5 0 24.5C0 24.5 0.340308 21.747 1.5 21C2.65969 20.253 5.99975 27.5 7.5 25.5C9.00024 23.5 7.97317 19.2572 10 16C11.8251 13.067 15.4998 10.0001 16.5 10C17.5002 9.99995 17.9302 13.097 19 15C22.2731 20.822 24.6185 23.9415 29.5 28.5C30.8157 29.7287 31.8478 30.1168 33 31.5C34.7893 33.6481 34.1874 35.8715 36 38C38.324 40.7291 40.5 39.5 44 42.5C47.5 45.5 37.5 51 37.5 51C37.5 51 38.4512 52.8106 39 54C40.1394 56.4695 40.2216 58.0995 41.5 60.5C42.0352 61.5049 42.2976 62.1039 43 63C44.3734 64.7523 45.39 65.5703 46.5002 67.5C47.2091 68.7322 50.5 72 50.5 72C50.5 72 58.5002 77 78.5 80C98.4998 83 101 87 102 88C103 89 110.5 97 110.5 97C110.5 97 113.5 99 115 103C116.5 107 116 107.5 120.5 113.5C125 119.5 124.541 118.589 127.5 121.5C130.762 124.708 133.248 125.782 136.5 129C139.947 132.412 142.887 133.926 144.5 138.5C145.29 140.74 145.5 144.5 145.5 144.5C145.5 144.5 144 148 140.5 148C137 148 138 137.5 136.5 140.5C135 143.5 136.5 156.5 136.5 156.5C136.5 156.5 135.5 164.5 136.5 167.5C137.451 170.353 129.811 166.423 129.059 167.321C129.04 167.38 129.02 167.44 129 167.5C129 167.426 129.021 167.367 129.059 167.321C131.318 160.464 131.491 156.466 130.5 152.5C129.5 148.5 118.5 143 118.5 143C118.5 143 92.0002 131.5 90.5 130.5C88.9998 129.5 89.4998 129 90.5 135C91.5002 141 101.5 146 99.5 149.5C97.4998 153 92.9998 156 92 157.5C91.0002 159 92.398 159.692 92 161C91.6685 162.089 91.0124 162.483 90.5 163.5C89.7492 164.99 90.0002 166.5 89 167.5C87.9998 168.5 84.5002 166.723 80 167.5C75.4998 168.277 75.5 167.5 75.5 167.5L80 163.5C80 163.5 81.8521 163.734 83 163.5C86.5279 162.781 89 156.5 89 156.5L90.5 149.5C90.5 149.5 90.5 145.5 86 143C81.5 140.5 74.5002 138.5 69 133.5C63.4998 128.5 64.5002 123 63 121.5C61.4997 120 60.9449 119.649 59.5 120C58.5513 120.231 58.4077 121.14 57.5 121.5C56.2293 122.003 55.3668 121.5 54 121.5C53.0237 121.5 52.3534 121.026 51.5 121.5C51.0172 121.768 50.9418 122.169 50.5 122.5C48.2909 124.157 44.6265 118.979 43.5 121.5C43.0221 122.57 43.5 124.5 43.5 124.5L38 137V140.5L36.5 142L27 167.5C27 167.5 2.66667 169 4 167Z" fill="#5F4FF0"/>
<path d="M4 167.5C4 166.672 4.67157 166 5.5 166H135.5C136.328 166 137 166.672 137 167.5C137 168.328 136.328 169 135.5 169H5.5C4.67158 169 4 168.328 4 167.5Z" fill="#5F4FF0"/>
</svg>
